<?xml version="1.0" encoding="utf-8"?>
<!-- Generator: Adobe Adobe Illustrator 24.2.0, SVG Export Plug-In . SVG Version: 6.00 Build 0)  -->
<svg version="1.1" id="Layer_1" xmlns="http://www.w3.org/2000/svg" xmlns:xlink="http://www.w3.org/1999/xlink" x="0px" y="0px"
	 width="632px" height="723px" viewBox="0 0 632 723" style="enable-background:new 0 0 632 723;" xml:space="preserve">
<style type="text/css">
	.st0{fill:#241B17;}
	.st1{fill:#B6F49B;stroke:#000000;stroke-width:4;stroke-miterlimit:10;}
</style>
<g>
	<path class="st0" d="M127.35,535.27c0-139.56,0-278.64,0-418.08c1.96-0.1,3.5-0.24,5.03-0.24c75.71-0.03,151.43-0.14,227.14-0.01
		c19.57,0.03,39.15,0.37,58.41,4.82c22.12,5.11,40.68,16.64,57.93,30.83c24.35,20.03,39.33,45.96,46.5,76.17
		c7.41,31.19,5.63,62.09-6.84,92.03c-16.82,40.4-45.86,68.09-86.97,82.96c-23.23,8.4-47.46,10.06-71.95,8.97
		c-1.41-0.06-2.8-0.49-4.41-0.79c0-22.02,0-43.94,0-66.89c7.08,0,14.18,0.12,21.28-0.03c10.32-0.22,20.59-0.23,30.64-3.65
		c58.08-19.73,74.03-93.42,29.45-135.39c-14.18-13.35-30.89-20.58-49.79-20.96c-49.38-0.98-98.79-0.9-148.19-1.21
		c-9.72-0.06-19.45,0.02-29.17,0.14c-3.64,0.05-7.28,0.4-11.42,0.65c0,2.07,0,3.78,0,5.49c0.29,100.43,0.63,200.86,0.81,301.3
		c0.03,18.29,0.15,36.65-1.19,54.87c-1.35,18.44-10.69,33.44-24.81,45.16c-11.26,9.35-24.34,14.85-39.17,15.64
		c-0.92,0.05-1.84,0.01-3.3,0.01C127.35,583.11,127.35,559.43,127.35,535.27z"/>
	<path class="st0" d="M311.62,454.09c0,25.14,0.15,49.81-0.07,74.47c-0.11,12.38-0.3,24.88-5.49,36.51
		c-10.69,23.96-29.2,37.73-55.11,41.61c-2.14,0.32-4.37,0.04-6.83,0.04c-0.09-1.81-0.22-3.2-0.22-4.59
		c-0.06-61.74-0.18-123.48-0.09-185.21c0.02-13.97,2.17-27.63,10.24-39.57c12.17-18.01,28.27-29.83,50.7-31.3
		c2.04-0.13,4.09-0.02,6.88-0.02C311.62,382.14,311.62,417.88,311.62,454.09z"/>
	<path class="st1" d="M311.86,248.89c0.01,10.01,0.38,19.58-0.11,29.1c-0.26,5.11-1.12,10.58-3.3,15.11
		c-3.59,7.45-10.31,11.79-18.73,11.97c-14.78,0.32-29.58,0.09-45.03,0.09c0-11.69-0.24-22.76,0.13-33.81
		c0.13-3.82,0.96-8.08,2.9-11.28c4.91-8.12,11.94-13.39,22.14-13.26c12.58,0.16,25.17-0.02,37.76,0.1
		C309.04,246.92,310.45,247.9,311.86,248.89z"/>
</g>
</svg>
